<?xml version="1.0" encoding="UTF-8"?>
<svg width="120px" height="120px" viewBox="0 0 120 120" version="1.1" xmlns="http://www.w3.org/2000/svg" xmlns:xlink="http://www.w3.org/1999/xlink">
    <!-- Generator: Sketch 50.2 (55047) - http://www.bohemiancoding.com/sketch -->
    <title>Icons/Sercies/2D-3D Game Art-hover</title>
    <desc>Created with Sketch.</desc>
    <defs></defs>
    <g id="Icons/Sercies/2D-3D-Game-Art-hover" stroke="none" stroke-width="1" fill="none" fill-rule="evenodd">
        <path d="M107.975718,24.0903349 L102.072284,24 L101.982269,27.51907 L107.975718,27.51907 C109.413738,27.51907 110.583386,28.6928675 110.583386,30.1359884 L110.583386,98.9543465 C110.583386,100.397467 109.413738,101.571265 107.975718,101.571265 L36.3124607,101.48093 L36.4024762,27.51907 L71.1999205,27.6094049 L71.289936,24.0903349 L13.0242815,24.0903349 C9.70321973,24.0903349 7,26.8031447 7,30.1359884 L7,98.9543465 C7,102.28719 9.70321973,105 13.0242815,105 L107.975718,105 C111.29678,105 114,102.28719 114,98.9543465 L114,30.1359884 C114,26.8022025 111.29728,24.0903349 107.975718,24.0903349 Z M10.4166142,98.9543465 L10.4166142,30.1359884 C10.4166142,28.6928675 11.5862622,27.51907 13.0242815,27.51907 L32.8958464,27.6094049 L32.8058309,101.571265 L13.0242815,101.571265 C11.5862622,101.571265 10.4166142,100.397467 10.4166142,98.9543465 Z M65.2964862,36.5722792 L44.9898266,36.5722792 L44.9898266,92.5180557 L101.90602,92.5180557 L101.90602,36.5722792 L92.150479,36.5722792 L92.150479,32.9628743 L103.704342,32.9628743 C104.697017,32.9628743 105.502665,33.771381 105.502665,34.7675768 L105.502665,94.3227581 C105.502665,95.3189539 104.697017,96.1274606 103.704342,96.1274606 L43.191504,96.1274606 C42.1973912,96.1274606 41.3931813,95.3189539 41.3931813,94.3227581 L41.3931813,34.7675768 C41.3931813,33.771381 42.1973912,32.9628743 43.191504,32.9628743 L65.2964862,32.9628743 L65.2964862,36.5722792 Z M97.3051911,49.6253312 L93.7085458,49.6253312 L93.7085458,45.6376607 C93.7085458,44.9850803 93.1791196,44.4523321 92.5274074,44.4523321 L87.0648225,44.4523321 L87.0648225,40.8429272 L92.5274074,40.8429272 C95.1615905,40.8429272 97.3051911,42.9926887 97.3051911,45.6376607 L97.3051911,49.6253312 Z M21.6562303,55.6414874 C16.7647927,55.6414874 12.7840256,59.634933 12.7840256,64.5451675 C12.7840256,69.4554019 16.7647927,73.4488475 21.6562303,73.4488475 C26.547668,73.4488475 30.5284351,69.4539582 30.5284351,64.5451675 C30.5284351,59.6363767 26.5491067,55.6414874 21.6562303,55.6414874 Z M21.6562303,69.8394426 C18.7472636,69.8394426 16.3806709,67.4644542 16.3806709,64.5451675 C16.3806709,61.6273245 18.7472636,59.2508923 21.6562303,59.2508923 C24.5637584,59.2508923 26.9317897,61.6258807 26.9317897,64.5451675 C26.9317897,67.4644542 24.5651971,69.8394426 21.6562303,69.8394426 Z M26.1822488,88.7281805 L17.1302118,88.7281805 C16.1375377,88.7281805 15.3318892,89.5366872 15.3318892,90.5328829 C15.3318892,91.5290787 16.1375377,92.3375854 17.1302118,92.3375854 L26.1822488,92.3375854 C27.1749229,92.3375854 27.9805715,91.5290787 27.9805715,90.5328829 C27.9805715,89.5366872 27.1763616,88.7281805 26.1822488,88.7281805 Z M17.1302118,40.0012139 L26.1822488,40.0012139 C27.1749229,40.0012139 27.9805715,39.1927072 27.9805715,38.1965115 C27.9805715,37.2003157 27.1749229,36.391809 26.1822488,36.391809 L17.1302118,36.391809 C16.1375377,36.391809 15.3318892,37.2003157 15.3318892,38.1965115 C15.3318892,39.1927072 16.1375377,40.0012139 17.1302118,40.0012139 Z M52.8001525,53.8805719 L59.0389966,47.4031307 C58.8709139,46.7995917 58.9948393,46.1269122 59.4634767,45.6501308 L89.0374878,15.5120719 C89.704121,14.8293094 90.8963687,14.8293094 91.5644263,15.5120719 L97.482932,21.5431407 C98.172356,22.2460692 98.172356,23.378245 97.482932,24.079733 L67.9089209,54.2163515 C67.5756043,54.5577328 67.1197868,54.7493096 66.6454517,54.7493096 C66.4844911,54.7493096 66.334926,54.6974542 66.182512,54.6556818 L59.9493655,61.1273613 C59.616049,61.4687426 59.1602314,61.6603194 58.6858963,61.6603194 C58.2115612,61.6603194 57.7557437,61.4687426 57.4224271,61.1273613 L56.3754712,60.0600047 L53.0433079,63.4670419 C52.695747,63.821387 52.2370807,64 51.7798387,64 C51.32687,64 50.8739014,63.8257083 50.5263405,63.4771249 C49.8283699,62.7756369 49.8240966,61.6362589 50.5163695,60.9304496 L53.8670504,57.5032464 L52.8001525,56.4171643 C52.1107285,55.7156762 52.1107285,54.58206 52.8001525,53.8805719 Z M58.6858963,57.3015866 L63.4889153,52.2876195 L61.3750615,50.1341808 L56.5720425,55.1481479 L58.6858963,57.3015866 Z M90.300957,19.3364062 L63.2367912,46.9162663 L66.6483005,50.3920172 L93.7124664,22.8121571 L90.300957,19.3364062 Z" id="2D/3D-Game-Art" fill="#0EC573" fill-rule="nonzero"></path>
    </g>
</svg>