<?xml version="1.0" encoding="UTF-8"?>
<svg width="50px" height="50px" viewBox="0 0 50 50" version="1.1" xmlns="http://www.w3.org/2000/svg" xmlns:xlink="http://www.w3.org/1999/xlink">
    <!-- Generator: Sketch 50 (54983) - http://www.bohemiancoding.com/sketch -->
    <title>linkedin-Icon</title>
    <desc>Created with Sketch.</desc>
    <defs></defs>
    <g id="Home-Page" stroke="none" stroke-width="1" fill="none" fill-rule="evenodd">
        <g id="Homepage1-1" transform="translate(-1484.000000, -7461.000000)">
            <g id="linkedin" transform="translate(1484.000000, 7461.000000)">
                <rect id="Rectangle-13-Copy-4" stroke="#A0AABC" stroke-width="1" opacity="0.299999982" x="0.5" y="0.5" width="49" height="49" rx="5"></rect>
                <path d="M18.7714844,21.4986376 L18.7714844,35 L14.2597656,35 L14.2597656,21.4986376 L18.7714844,21.4986376 Z M19.0585938,17.3297003 C19.0722656,18.6239782 18.0878906,19.6594005 16.515625,19.6594005 L16.4882812,19.6594005 C14.9707031,19.6594005 14,18.6239782 14,17.3297003 C14,16.0081744 15.0117188,15 16.5429688,15 C18.0878906,15 19.0449219,16.0081744 19.0585938,17.3297003 Z M25.7578125,23.4176454 C26.3513359,22.4930733 27.422027,21.1852861 29.8183594,21.1852861 C32.7851562,21.1852861 35,23.119891 35,27.2615804 L35,35 L30.5019531,35 L30.5019531,27.7792916 C30.5019531,25.9673025 29.8457031,24.7275204 28.21875,24.7275204 C26.9746094,24.7275204 26.2363281,25.5585831 25.9082031,26.3623978 C25.7988281,26.6621253 25.7578125,27.0572207 25.7578125,27.4659401 L25.7578125,35 L21.2597656,35 C21.3144531,22.7656676 21.2597656,21.4986376 21.2597656,21.4986376 L25.7578125,21.4986376 L25.7578125,23.4176454 Z" id="-copy" fill="#A0AABC" fill-rule="evenodd"></path>
            </g>
        </g>
    </g>
</svg>