<svg width="44" height="43" viewBox="0 0 44 43" fill="none" xmlns="http://www.w3.org/2000/svg">
<path d="M18.8997 37.1615V26.2626C18.8997 26.0823 18.8281 25.9095 18.7007 25.7821C18.5732 25.6546 18.4004 25.583 18.2202 25.583H13.6834C13.5031 25.583 13.3301 25.6547 13.2026 25.7822C13.0751 25.9097 13.0034 26.0827 13.0034 26.2631C13.0034 26.4434 13.0751 26.6164 13.2026 26.7439C13.3301 26.8715 13.5031 26.9431 13.6834 26.9431H17.5437V37.1615C16.8412 37.3282 16.2243 37.7471 15.8103 38.3386C15.3963 38.9302 15.2139 39.6532 15.2978 40.3703C15.3817 41.0875 15.726 41.7489 16.2654 42.2288C16.8048 42.7088 17.5017 42.974 18.2237 42.974C18.9457 42.974 19.6426 42.7088 20.182 42.2288C20.7214 41.7489 21.0657 41.0875 21.1496 40.3703C21.2335 39.6532 21.0512 38.9302 20.6371 38.3386C20.2231 37.7471 19.6062 37.3282 18.9037 37.1615H18.8997ZM18.2202 41.6148C17.9063 41.6148 17.5995 41.5218 17.3386 41.3474C17.0776 41.173 16.8742 40.9252 16.7541 40.6352C16.634 40.3452 16.6026 40.0261 16.6638 39.7183C16.725 39.4104 16.8762 39.1277 17.0981 38.9057C17.32 38.6838 17.6028 38.5327 17.9106 38.4714C18.2184 38.4102 18.5375 38.4416 18.8275 38.5617C19.1174 38.6819 19.3653 38.8853 19.5396 39.1462C19.714 39.4072 19.807 39.714 19.807 40.0279C19.8068 40.4487 19.6395 40.8522 19.342 41.1497C19.0444 41.4473 18.641 41.6146 18.2202 41.6148Z" fill="#5E656A"/>
<path d="M26.1521 37.1615V26.2626C26.1521 26.0823 26.0806 25.9095 25.9531 25.7821C25.8257 25.6546 25.6529 25.583 25.4726 25.583H20.9359C20.7555 25.583 20.5826 25.6547 20.455 25.7822C20.3275 25.9097 20.2559 26.0827 20.2559 26.2631C20.2559 26.4434 20.3275 26.6164 20.455 26.7439C20.5826 26.8715 20.7555 26.9431 20.9359 26.9431H24.7952V37.1615C24.0924 37.3282 23.4753 37.7472 23.061 38.3389C22.6468 38.9307 22.4643 39.6539 22.5482 40.3713C22.6321 41.0888 22.9766 41.7504 23.5162 42.2306C24.0558 42.7108 24.7529 42.9761 25.4752 42.9761C26.1974 42.9761 26.8946 42.7108 27.4342 42.2306C27.9737 41.7504 28.3182 41.0888 28.4021 40.3713C28.486 39.6539 28.3035 38.9307 27.8893 38.3389C27.4751 37.7472 26.858 37.3282 26.1552 37.1615H26.1521ZM25.4726 41.6148C25.1588 41.6148 24.852 41.5218 24.591 41.3474C24.3301 41.173 24.1267 40.9252 24.0066 40.6352C23.8865 40.3452 23.855 40.0261 23.9163 39.7183C23.9775 39.4104 24.1286 39.1277 24.3506 38.9057C24.5725 38.6838 24.8552 38.5327 25.1631 38.4714C25.4709 38.4102 25.7899 38.4416 26.0799 38.5617C26.3699 38.6819 26.6177 38.8853 26.7921 39.1462C26.9664 39.4072 27.0595 39.714 27.0595 40.0279C27.059 40.4488 26.8915 40.8523 26.5938 41.1498C26.2961 41.4473 25.8925 41.6146 25.4716 41.6148H25.4726Z" fill="#5E656A"/>
<path d="M37.7112 32.5479C37.0483 32.5488 36.4051 32.7729 35.8851 33.1841C35.3651 33.5952 34.9988 34.1695 34.845 34.8143H33.4053V26.2626C33.4053 26.0823 33.3337 25.9095 33.2063 25.7821C33.0789 25.6546 32.906 25.583 32.7258 25.583H28.189C28.0087 25.583 27.8357 25.6547 27.7082 25.7822C27.5807 25.9097 27.509 26.0827 27.509 26.2631C27.509 26.4434 27.5807 26.6164 27.7082 26.7439C27.8357 26.8715 28.0087 26.9431 28.189 26.9431H32.0493V35.4949C32.0493 35.6751 32.1209 35.848 32.2484 35.9754C32.3758 36.1029 32.5486 36.1744 32.7289 36.1744H34.846C34.9744 36.7126 35.2517 37.2038 35.6462 37.5917C36.0408 37.9796 36.5366 38.2485 37.0768 38.3677C37.6171 38.4869 38.18 38.4516 38.7011 38.2657C39.2222 38.0798 39.6805 37.7509 40.0234 37.3167C40.3663 36.8825 40.5799 36.3605 40.64 35.8105C40.7 35.2604 40.6039 34.7046 40.3627 34.2067C40.1216 33.7087 39.7451 33.2887 39.2763 32.9948C38.8076 32.7009 38.2655 32.545 37.7122 32.5448L37.7112 32.5479ZM37.7112 37.0849C37.3974 37.0849 37.0906 36.9918 36.8296 36.8174C36.5687 36.643 36.3653 36.3952 36.2451 36.1052C36.125 35.8153 36.0936 35.4962 36.1548 35.1883C36.2161 34.8805 36.3672 34.5977 36.5892 34.3758C36.8111 34.1539 37.0938 34.0027 37.4016 33.9415C37.7095 33.8802 38.0285 33.9117 38.3185 34.0318C38.6085 34.1519 38.8563 34.3553 39.0307 34.6163C39.205 34.8772 39.2981 35.1841 39.2981 35.4979C39.2968 35.918 39.129 36.3205 38.8316 36.6172C38.5342 36.9139 38.1313 37.0806 37.7112 37.0809V37.0849Z" fill="#5E656A"/>
<path d="M41.5319 15.011C40.6145 13.8742 39.3805 13.0353 37.9861 12.6003C37.8502 9.85276 36.8378 7.22103 35.0972 5.09087C33.3567 2.96071 30.9796 1.44416 28.3144 0.763536C25.6492 0.0829071 22.8361 0.273994 20.2874 1.30879C17.7387 2.34358 15.5885 4.16765 14.152 6.51361C13.3732 6.26957 12.5521 6.19039 11.741 6.28113C10.93 6.37187 10.1467 6.63053 9.44107 7.04065C8.73545 7.45076 8.12298 8.00333 7.64264 8.66318C7.16231 9.32302 6.82465 10.0757 6.65117 10.8732C4.72886 11.3734 3.05475 12.5571 1.94226 14.2027C0.829772 15.8484 0.355186 17.8431 0.607354 19.8135C0.859521 21.7838 1.82115 23.5947 3.31221 24.9071C4.80327 26.2195 6.72152 26.9434 8.70784 26.9433H10.2876V34.8156H8.84697C8.6803 34.113 8.26144 33.4961 7.66993 33.0821C7.07842 32.668 6.35545 32.4856 5.63833 32.5695C4.9212 32.6534 4.25986 32.9978 3.7799 33.5372C3.29993 34.0766 3.03478 34.7735 3.03478 35.4956C3.03478 36.2177 3.29993 36.9146 3.7799 37.454C4.25986 37.9934 4.9212 38.3378 5.63833 38.4217C6.35545 38.5056 7.07842 38.3232 7.66993 37.9091C8.26144 37.4951 8.6803 36.8782 8.84697 36.1757H10.9641C11.1443 36.1757 11.3172 36.1041 11.4446 35.9766C11.572 35.8492 11.6436 35.6763 11.6436 35.4961V26.2638C11.6436 26.0835 11.572 25.9107 11.4446 25.7833C11.3172 25.6558 11.1443 25.5842 10.9641 25.5842H8.70784C7.01813 25.5849 5.3886 24.9569 4.13623 23.8225C2.88387 22.6882 2.09821 21.1285 1.93209 19.4468C1.76598 17.7652 2.23128 16.0819 3.2375 14.7244C4.24371 13.3669 5.71888 12.4322 7.37604 12.1022C7.51566 12.0747 7.64312 12.004 7.74043 11.9002C7.83775 11.7964 7.90001 11.6646 7.91844 11.5235C8.00993 10.8314 8.26066 10.1698 8.65091 9.59095C9.04117 9.01206 9.56032 8.53154 10.1676 8.18714C10.7749 7.84275 11.4537 7.64385 12.1508 7.60609C12.8479 7.56833 13.5443 7.69272 14.1852 7.96949C14.3403 8.03665 14.5149 8.0436 14.6748 7.98898C14.8348 7.93436 14.9686 7.82209 15.0502 7.67408C16.2793 5.44608 18.2118 3.68803 20.5457 2.67467C22.8796 1.66132 25.4835 1.44975 27.9504 2.07305C30.4173 2.69634 32.6082 4.11937 34.1807 6.11976C35.7533 8.12014 36.6189 10.5852 36.6422 13.1296C36.6435 13.2822 36.6961 13.4299 36.7916 13.549C36.8871 13.6681 37.0198 13.7515 37.1685 13.786C38.5972 14.1182 39.8538 14.9643 40.699 16.1632C41.5442 17.3621 41.9189 18.8301 41.7517 20.2874C41.5846 21.7448 40.8873 23.0897 39.7926 24.0661C38.6979 25.0425 37.2823 25.5821 35.8155 25.5822H35.4445C35.2642 25.5822 35.0912 25.6539 34.9637 25.7814C34.8362 25.9089 34.7645 26.0819 34.7645 26.2623C34.7645 26.4426 34.8362 26.6156 34.9637 26.7431C35.0912 26.8707 35.2642 26.9423 35.4445 26.9423H35.8145C37.1978 26.9424 38.5529 26.5513 39.7235 25.8142C40.8941 25.0771 41.8324 24.024 42.4301 22.7765C43.0279 21.5289 43.2607 20.1378 43.1018 18.7636C42.9428 17.3893 42.3986 16.0881 41.5319 15.0099V15.011ZM5.98578 37.0821C5.67193 37.0821 5.36512 36.989 5.10416 36.8146C4.84321 36.6402 4.63981 36.3924 4.51971 36.1024C4.3996 35.8124 4.36818 35.4933 4.42941 35.1855C4.49064 34.8777 4.64177 34.5949 4.8637 34.373C5.08562 34.151 5.36837 33.9999 5.6762 33.9386C5.98402 33.8774 6.30308 33.9088 6.59304 34.0289C6.883 34.1491 7.13084 34.3525 7.3052 34.6134C7.47957 34.8744 7.57264 35.1812 7.57264 35.4951C7.57237 35.9159 7.4051 36.3194 7.10756 36.617C6.81003 36.9145 6.40656 37.0818 5.98578 37.0821Z" fill="#5E656A"/>
</svg>
