<?xml version="1.0" encoding="UTF-8"?>
<svg width="120px" height="120px" viewBox="0 0 120 120" version="1.1" xmlns="http://www.w3.org/2000/svg" xmlns:xlink="http://www.w3.org/1999/xlink">
    <!-- Generator: Sketch 50.2 (55047) - http://www.bohemiancoding.com/sketch -->
    <title>Icons/Sercies/Mobile Development </title>
    <desc>Created with Sketch.</desc>
    <defs></defs>
    <g id="Icons/Sercies/Mobile-Development-" stroke="none" stroke-width="1" fill="none" fill-rule="evenodd">
        <path d="M41.8303965,60 C41.8303965,49.6765455 50.2051207,41.2785758 60.5,41.2785758 C70.7948793,41.2785758 79.1696035,49.6765455 79.1696035,60 C79.1696035,70.3234545 70.7948793,78.7214242 60.5,78.7214242 C50.2051207,78.7214242 41.8303965,70.3234545 41.8303965,60 Z M60.5,44.7138555 C52.0947023,44.7138555 45.2561674,51.571372 45.2561674,60 C45.2561674,68.428628 52.0947023,75.2861445 60.5,75.2861445 C68.9052977,75.2861445 75.7438326,68.428628 75.7438326,60 C75.7438326,51.571372 68.9052977,44.7138555 60.5,44.7138555 Z M65.455051,56.576994 L65.455051,56.3339737 L67.63476,54.1482145 L67.8771076,54.1482145 L73.5915216,59.8784899 L73.5915216,60.1215101 L67.8771076,65.8517855 L67.63476,65.8517855 L65.455051,63.6660263 L65.455051,63.423006 L68.8685822,60 L65.455051,56.576994 Z M55.544949,63.423006 L55.544949,63.6660263 L53.36524,65.8517855 L53.1228924,65.8517855 L47.4084784,60.1215101 L47.4084784,59.8784899 L53.1228924,54.1482145 L53.36524,54.1482145 L55.544949,56.3339737 L55.544949,56.576994 L52.1314178,60 L55.544949,63.423006 Z M60.4354961,68.2004604 L57.4125758,67.5929616 L57.2782114,67.3907697 L60.3612511,51.932784 L60.5629623,51.7979938 L63.5858827,52.4054926 L63.7202471,52.6076845 L60.6372074,68.0656703 L60.4354961,68.2004604 Z M75.9151982,36.6411801 L94.3220925,36.6411801 L94.4934581,36.8130213 L94.4934581,39.9046185 L94.3220925,40.0764598 L75.9151982,40.0764598 L75.7438326,39.9046185 L75.7438326,36.8130213 L75.9151982,36.6411801 Z M45.0848018,43.1680569 L29.6696035,43.1680569 L29.4982379,42.9962157 L29.4982379,39.9046185 L29.6696035,39.7327772 L45.0848018,39.7327772 L45.2561674,39.9046185 L45.2561674,42.9962157 L45.0848018,43.1680569 Z M11.1713656,49.3512512 L11,49.17941 L11,33.7214242 L11.1713656,33.5495829 L26.5865639,33.5495829 L26.7579295,33.7214242 L26.7579295,49.17941 L26.5865639,49.3512512 L11.1713656,49.3512512 Z M14.4257709,45.9159715 L23.3321586,45.9159715 L23.3321586,36.9848626 L14.4257709,36.9848626 L14.4257709,45.9159715 Z M17.3374449,39.7327772 L20.4204846,39.7327772 L20.5918502,39.9046185 L20.5918502,42.9962157 L20.4204846,43.1680569 L17.3374449,43.1680569 L17.1660793,42.9962157 L17.1660793,39.9046185 L17.3374449,39.7327772 Z M45.0848018,83.3588199 L26.6779075,83.3588199 L26.5065419,83.1869787 L26.5065419,80.0953815 L26.6779075,79.9235402 L45.0848018,79.9235402 L45.2561674,80.0953815 L45.2561674,83.1869787 L45.0848018,83.3588199 Z M75.9151982,76.8319431 L91.3303965,76.8319431 L91.5017621,77.0037843 L91.5017621,80.0953815 L91.3303965,80.2672228 L75.9151982,80.2672228 L75.7438326,80.0953815 L75.7438326,77.0037843 L75.9151982,76.8319431 Z M94.4134361,86.4504171 L94.2420705,86.2785758 L94.2420705,70.82059 L94.4134361,70.6487488 L109.828634,70.6487488 L110,70.82059 L110,86.2785758 L109.828634,86.4504171 L94.4134361,86.4504171 Z M97.6678414,83.0151374 L106.574229,83.0151374 L106.574229,74.0840285 L97.6678414,74.0840285 L97.6678414,83.0151374 Z M100.579515,76.8319431 L103.662555,76.8319431 L103.833921,77.0037843 L103.833921,80.0953815 L103.662555,80.2672228 L100.579515,80.2672228 L100.40815,80.0953815 L100.40815,77.0037843 L100.579515,76.8319431 Z M65.1245595,97.2710071 L55.8754405,97.2710071 L55.7040749,97.0991658 L55.7040749,94.0075687 L55.8754405,93.8357274 L65.1245595,93.8357274 L65.2959251,94.0075687 L65.2959251,97.0991658 L65.1245595,97.2710071 Z M58.9584802,22.7289929 L68.2075991,22.7289929 L68.3789647,22.9008342 L68.3789647,25.9924313 L68.2075991,26.1642726 L58.9584802,26.1642726 L58.7871146,25.9924313 L58.7871146,22.9008342 L58.9584802,22.7289929 Z M52.7924009,22.7289929 L55.8754405,22.7289929 L56.0468061,22.9008342 L56.0468061,25.9924313 L52.7924009,26.1642726 L52.6210353,25.9924313 L52.6210353,22.9008342 L52.7924009,22.7289929 Z M84.9929516,83.1869787 L85.1643172,83.0151374 L88.2473568,83.0151374 L88.4187225,83.1869787 L88.4187225,98.6449644 C88.4187225,102.149901 85.5765129,105 82.0812775,105 L38.9187225,105 C35.4234871,105 32.5812775,102.149901 32.5812775,98.6449644 L32.5812775,86.2785758 L32.7526432,86.1067345 L84.9929516,86.1067345 L84.9929516,83.1869787 Z M36.0070484,98.6449644 C36.0070484,100.255075 37.3130687,101.56472 38.9187225,101.56472 L82.0812775,101.56472 C83.6869313,101.56472 84.9929516,100.255075 84.9929516,98.6449644 L84.9929516,89.5420142 L36.0070484,89.5420142 L36.0070484,98.6449644 Z M32.5812775,77.0037843 L32.5812775,46.0878128 L32.7526432,45.9159715 L35.8356828,45.9159715 L36.0070484,46.0878128 L36.0070484,77.0037843 L35.8356828,77.1756256 L32.7526432,77.1756256 L32.5812775,77.0037843 Z M36.0070484,36.8130213 L35.8356828,36.9848626 L32.7526432,36.9848626 L32.5812775,36.8130213 L32.5812775,21.3550356 C32.5812775,17.8500986 35.4234871,15 38.9187225,15 L82.0812775,15 C85.5765129,15 88.4187225,17.8500986 88.4187225,21.3550356 L88.4187225,33.7214242 L88.2473568,33.8932655 L36.0070484,33.8932655 L36.0070484,36.8130213 Z M84.9929516,21.3550356 C84.9929516,19.7449251 83.6869313,18.4352797 82.0812775,18.4352797 L38.9187225,18.4352797 C37.3130687,18.4352797 36.0070484,19.7449251 36.0070484,21.3550356 L36.0070484,30.4579858 L84.9929516,30.4579858 L84.9929516,21.3550356 Z M88.4187225,42.9962157 L88.4187225,73.9121872 L88.2473568,74.0840285 L85.1643172,74.0840285 L84.9929516,73.9121872 L84.9929516,42.9962157 L85.1643172,42.8243744 L88.2473568,42.8243744 L88.4187225,42.9962157 Z" id="Mobile-Development-" fill="#5E656A" fill-rule="nonzero"></path>
    </g>
</svg>