<?xml version="1.0" encoding="UTF-8"?>
<svg width="120px" height="120px" viewBox="0 0 120 120" version="1.1" xmlns="http://www.w3.org/2000/svg" xmlns:xlink="http://www.w3.org/1999/xlink">
    <!-- Generator: Sketch 50.2 (55047) - http://www.bohemiancoding.com/sketch -->
    <title>Icons/Sercies/Quality Assurance</title>
    <desc>Created with Sketch.</desc>
    <defs></defs>
    <g id="Icons/Sercies/Quality-Assurance" stroke="none" stroke-width="1" fill="none" fill-rule="evenodd">
        <path d="M29.4453094,92.9663871 L29.4453094,96.4615866 L7,96.4615866 L7,15 L114,15 L114,96.4615866 L91.3930182,96.4615866 L91.3930182,92.9663871 L110.470367,92.9663871 L110.470367,34.3028196 L10.5296329,34.3028196 L10.5296329,92.9663871 L29.4453094,92.9663871 Z M110.470367,30.8076201 L110.470367,18.4951995 L10.5296329,18.4951995 L10.5296329,30.8076201 L110.470367,30.8076201 Z M93.467599,22.90381 L93.467599,26.3990095 L89.9379661,26.3990095 L89.9379661,22.90381 L93.467599,22.90381 Z M99.6111521,22.90381 L99.6111521,26.3990095 L96.0815192,26.3990095 L96.0815192,22.90381 L99.6111521,22.90381 Z M105.754705,22.90381 L105.754705,26.3990095 L102.225072,26.3990095 L102.225072,22.90381 L105.754705,22.90381 Z M84.2522695,22.90381 L84.2522695,26.3990095 L16.5386745,26.3990095 L16.5386745,22.90381 L84.2522695,22.90381 Z M105.108015,39.2926683 L105.108015,42.7878679 L15.7303122,42.7878679 L15.7303122,39.2926683 L105.108015,39.2926683 Z M31.2508673,105 L31.2508673,47.3926057 L89.5874603,47.3926057 L89.5874603,105 L31.2508673,105 Z M60.4191638,56.8382255 C71.2625308,56.8382255 80.0487858,65.4370053 80.0487858,76.1162552 C80.0487858,86.824483 71.2328849,95.5543802 60.4191638,95.5543802 C49.5757967,95.5543802 40.7895418,86.9556004 40.7895418,76.2763505 C40.7895418,65.5681227 49.6054426,56.8382255 60.4191638,56.8382255 Z M68.8477102,67.9623756 L71.2057342,70.5308979 L56.372111,85.2198115 L49.6372917,78.3704474 L51.9931579,75.8042755 L56.3798966,80.1482193 L68.8477102,67.9623756 Z M60.4191638,92.0591807 C69.3294813,92.0591807 76.5191529,84.9396481 76.5191529,76.1162552 C76.5191529,67.3968069 69.2731438,60.1733298 60.4191638,60.1733298 C51.5088462,60.1733298 44.3191747,67.2928624 44.3191747,76.1162552 C44.3191747,84.9396481 51.5088462,92.0591807 60.4191638,92.0591807 Z M34.7805002,101.664896 L86.0578274,101.664896 L86.0578274,50.8878052 L34.7805002,50.8878052 L34.7805002,101.664896 Z" id="Quality-Assurance" fill="#5E656A" fill-rule="nonzero"></path>
    </g>
</svg>