<?xml version="1.0" encoding="UTF-8"?>
<svg width="50px" height="50px" viewBox="0 0 50 50" version="1.1" xmlns="http://www.w3.org/2000/svg" xmlns:xlink="http://www.w3.org/1999/xlink">
    <!-- Generator: Sketch 50 (54983) - http://www.bohemiancoding.com/sketch -->
    <title>twitter-Icon</title>
    <desc>Created with Sketch.</desc>
    <defs></defs>
    <g id="Home-Page" stroke="none" stroke-width="1" fill="none" fill-rule="evenodd">
        <g id="Homepage1-1" transform="translate(-1400.000000, -7461.000000)">
            <g id="twitter-Icon" transform="translate(1400.000000, 7461.000000)">
                <rect id="Rectangle-13-Copy-3" stroke="#A0AABC" stroke-width="1" opacity="0.299999982" x="0.5" y="0.5" width="49" height="49" rx="5"></rect>
                <path d="M37,17.375 C36.3299492,18.375 35.4923858,19.265625 34.5329949,19.984375 C34.5482234,20.203125 34.5482234,20.421875 34.5482234,20.640625 C34.5482234,27.3125 29.5989848,35 20.5532995,35 C17.7664975,35 15.177665,34.171875 13,32.734375 C13.3959391,32.78125 13.7766497,32.796875 14.1878173,32.796875 C16.4873096,32.796875 18.6040609,32 20.2944162,30.640625 C18.1319797,30.59375 16.319797,29.140625 15.6954315,27.140625 C16,27.1875 16.3045685,27.21875 16.6243655,27.21875 C17.0659898,27.21875 17.5076142,27.15625 17.9187817,27.046875 C15.6649746,26.578125 13.9746193,24.546875 13.9746193,22.09375 L13.9746193,22.03125 C14.6294416,22.40625 15.3908629,22.640625 16.1979695,22.671875 C14.8730964,21.765625 14.0050761,20.21875 14.0050761,18.46875 C14.0050761,17.53125 14.248731,16.671875 14.6751269,15.921875 C17.0964467,18.984375 20.7360406,20.984375 24.8172589,21.203125 C24.7411168,20.828125 24.6954315,20.4375 24.6954315,20.046875 C24.6954315,17.265625 26.8883249,15 29.6142132,15 C31.0304569,15 32.3096447,15.609375 33.2081218,16.59375 C34.319797,16.375 35.3857868,15.953125 36.3299492,15.375 C35.964467,16.546875 35.1878173,17.53125 34.1675127,18.15625 C35.1573604,18.046875 36.1167513,17.765625 37,17.375 Z" id="-copy" fill="#A0AABC" fill-rule="evenodd"></path>
            </g>
        </g>
    </g>
</svg>