<?xml version="1.0" encoding="UTF-8"?>
<svg width="120px" height="120px" viewBox="0 0 120 120" version="1.1" xmlns="http://www.w3.org/2000/svg" xmlns:xlink="http://www.w3.org/1999/xlink">
    <!-- Generator: Sketch 50.2 (55047) - http://www.bohemiancoding.com/sketch -->
    <title>Icons/Sercies/UI-UX</title>
    <desc>Created with Sketch.</desc>
    <defs></defs>
    <g id="Icons/Sercies/UI-UX" stroke="none" stroke-width="1" fill="none" fill-rule="evenodd">
        <path d="M105.301205,15 C106.240093,15 107,15.7585371 107,16.6945607 L107,83.7112971 C107,84.6485238 106.240774,85.4058577 105.301205,85.4058577 L61.6987952,85.5941423 L61.8875502,101.610879 L78.875502,101.610879 C79.8150708,101.610879 80.5742972,102.368213 80.5742972,103.305439 C80.5742972,104.242666 79.8150708,105 78.875502,105 L41.124498,105 C40.1861354,105 39.4257028,104.241987 39.4257028,103.305439 C39.4257028,102.368892 40.1861354,101.610879 41.124498,101.610879 L58.3012048,101.422594 L58.1124498,85.4058577 L14.6987952,85.4058577 C13.7604326,85.4058577 13,84.6478445 13,83.7112971 L13,16.6945607 C13,15.7592168 13.761114,15 14.6987952,15 L105.301205,15 Z M103.413655,82.0167364 L103.60241,81.8284519 L103.60241,18.5774059 L103.413655,18.3891213 L16.5863454,18.3891213 L16.3975904,18.5774059 L16.3975904,81.8284519 L16.5863454,82.0167364 L103.413655,82.0167364 Z M26.909672,30.4499999 C25.8720857,30.4499999 25.0299866,29.6771999 25.0299866,28.725 C25.0299866,27.7728 25.8720857,27 26.909672,27 L60.7440094,27 C61.7815957,27 62.6236948,27.7728 62.6236948,28.725 C62.6236948,29.6771999 61.7815957,30.4499999 60.7440094,30.4499999 L26.909672,30.4499999 Z M26.909672,37.9499999 C25.8720857,37.9499999 25.0299866,37.1771999 25.0299866,36.225 C25.0299866,35.2728 25.8720857,34.5 26.909672,34.5 L60.7440094,34.5 C61.7815957,34.5 62.6236948,35.2728 62.6236948,36.225 C62.6236948,37.1771999 61.7815957,37.9499999 60.7440094,37.9499999 L26.909672,37.9499999 Z M26.909672,45.4499999 C25.8720857,45.4499999 25.0299866,44.6771999 25.0299866,43.725 C25.0299866,42.7728 25.8720857,42 26.909672,42 L45.7065261,42 C46.7441124,42 47.5862115,42.7728 47.5862115,43.725 C47.5862115,44.6771999 46.7441124,45.4499999 45.7065261,45.4499999 L26.909672,45.4499999 Z M26.5337349,57 L46.0824632,57 C46.9129605,57 47.5862115,57.6715729 47.5862115,58.5 L47.5862115,69 C47.5862115,69.8284271 46.9129605,70.5 46.0824632,70.5 L26.5337349,70.5 C25.7032377,70.5 25.0299866,69.8284271 25.0299866,69 L25.0299866,58.5 C25.0299866,57.6715729 25.7032377,57 26.5337349,57 Z M28.4886078,67.05 L44.1275904,67.05 L44.1275904,60.45 L28.4886078,60.45 L28.4886078,67.05 Z M80.9865633,67.3450959 C80.8022332,67.4831213 80.5931847,67.5847149 80.3706915,67.6443978 C79.4073728,67.9028042 78.4174901,67.3333066 78.1597265,66.3723895 L72.6406458,45.7978009 C72.5142677,45.3266758 72.5848246,44.824312 72.8361872,44.4055505 C73.3488718,43.5514353 74.4578621,43.2728902 75.3131862,43.7834024 L93.6739083,54.7422585 C93.8747611,54.8621403 94.0502775,55.019892 94.1906791,55.2067249 C94.7885742,56.0023459 94.6262847,57.1317727 93.8281954,57.7293701 L88.6182666,61.6304879 L92.9904778,67.4049041 C93.49051,68.0702964 93.3556605,69.0086913 92.6925545,69.5052048 C92.0279151,70.0028664 91.0857727,69.8709908 90.5854011,69.2102577 L86.210582,63.433376 L80.9865633,67.3450959 Z M80.6083545,63.8857321 L90.6009082,56.4038 L76.3140382,47.8768512 L80.6083545,63.8857321 Z" id="UI/UX" fill="#5E656A" fill-rule="nonzero"></path>
    </g>
</svg>