<?xml version="1.0" encoding="UTF-8" standalone="no"?>
<svg width="60px" height="60px" viewBox="0 0 60 60" version="1.1" xmlns="http://www.w3.org/2000/svg" xmlns:xlink="http://www.w3.org/1999/xlink">
    <!-- Generator: Sketch 39.1 (31720) - http://www.bohemiancoding.com/sketch -->
    <title>research-development</title>
    <desc>Created with Sketch.</desc>
    <defs></defs>
    <g id="Page-1" stroke="none" stroke-width="1" fill="none" fill-rule="evenodd">
        <g id="research-development" fill="#5E656A">
            <g id="Group-4">
                <g id="Group-3">
                    <g id="noun_Research_1606946-(1)">
                        <g id="Group">
                            <g id="Shape">
                                <path d="M47.7706055,33.1804687 C47.5034179,33.1804687 47.2385742,33.0914062 47.0217774,32.9179687 C45.6366211,31.8117187 43.959668,31.0980468 42.1725587,30.8542968 C41.578418,30.7722655 41.1354493,30.2648437 41.1354493,29.6648437 L41.1354493,19.5246094 L30.6588868,19.5246094 C29.9956055,19.5246094 29.4588868,18.9878906 29.4588868,18.3246094 L29.4588868,7.83632808 L6.67060548,7.83632808 C6.0073242,7.83632808 5.47060548,7.29960936 5.47060548,6.63632808 L5.47060548,1.2 C5.47060548,0.53671872 6.0073242,0 6.67060548,0 L47.7706055,0 C48.4338868,0 48.9706055,0.53671872 48.9706055,1.2 L48.9706055,31.9804687 C48.9706055,32.4410156 48.7069336,32.8617187 48.2909179,33.0621094 C48.1256836,33.1417969 47.9475586,33.1804687 47.7706055,33.1804687 L47.7706055,33.1804687 Z M43.5354492,28.6628906 C44.5959961,28.8996094 45.6166992,29.2734376 46.5706055,29.7726563 L46.5706055,2.4 L7.87060548,2.4 L7.87060548,5.43632808 L30.6588868,5.43632808 C31.322168,5.43632808 31.8588868,5.9730468 31.8588868,6.63632808 L31.8588868,17.1246094 L42.3354493,17.1246094 C42.9987306,17.1246094 43.5354493,17.6613281 43.5354493,18.3246094 L43.5354493,28.6628906 L43.5354492,28.6628906 Z"></path>
                                <path d="M47.7706055,54.5765626 L42.3354492,54.5765626 C41.6721679,54.5765626 41.1354492,54.0398438 41.1354492,53.3765626 L41.1354492,51.9128906 C41.1354492,51.309375 41.5831055,50.8007813 42.1807618,50.7222656 C43.4452148,50.559375 44.6452148,50.15625 45.7479493,49.5269531 C45.947168,49.415625 46.13584,49.2996094 46.3268556,49.1730468 C46.3549806,49.1542968 46.3842775,49.1367187 46.4135743,49.1214842 L46.4862306,49.0699217 C46.6092775,48.9855467 46.7311525,48.9023436 46.8471682,48.8085936 C46.8694338,48.7898436 46.9268557,48.747656 46.9514651,48.7312499 C47.4178714,48.2624999 48.1643557,48.2777342 48.6331057,48.7464842 C49.1018557,49.2140623 49.0877933,49.9886718 48.6190432,50.4574218 C48.5159179,50.5605469 48.4163086,50.6355469 48.3249024,50.7 C48.2663087,50.746875 48.1995118,50.7972656 48.1268555,50.85 C48.6155274,51.0023437 48.9706055,51.4570313 48.9706055,51.9960937 L48.9706055,53.3765624 C48.9706055,54.0398437 48.4338868,54.5765626 47.7706055,54.5765626 L47.7706055,54.5765626 Z M45.8182618,52.1765626 L46.5706055,52.1765626 L46.5706055,51.9960938 C46.5706055,51.9304688 46.575293,51.8671876 46.5858398,51.8050782 C46.3338868,51.9375 46.0784179,52.0617187 45.8182618,52.1765626 L45.8182618,52.1765626 Z"></path>
                                <path d="M42.3354492,60 L1.2354492,60 C0.57216792,60 0.0354492,59.4632813 0.0354492,58.8 L0.0354492,6.63632808 C0.0354492,5.9730468 0.57216792,5.43632808 1.2354492,5.43632808 L30.6588868,5.43632808 C31.322168,5.43632808 31.8588868,5.9730468 31.8588868,6.63632808 L31.8588868,17.1246094 L42.3354493,17.1246094 C42.9987306,17.1246094 43.5354493,17.6613281 43.5354493,18.3246094 L43.5354493,29.6648437 C43.5354493,30.0117187 43.3854493,30.3410156 43.125293,30.5683594 C42.863965,30.796875 42.515918,30.8988281 42.1737305,30.8542969 C39.0401368,30.4253906 35.9475586,31.4613282 33.7151368,33.6925782 C33.4749024,33.9339845 33.2522461,34.1765626 33.0506837,34.4296876 C33.047168,34.4355469 33.0424806,34.4414063 33.037793,34.4460938 C31.3186524,36.5367188 30.5229493,39.2976564 30.85459,42.0246095 C31.1323243,44.2546876 32.1272462,46.2832032 33.7280275,47.8839845 C34.4030275,48.5601564 35.1741212,49.1367188 36.0225588,49.5996095 C37.9034182,50.6320314 40.0303714,51.0175782 42.1713869,50.7246095 C42.5194338,50.6707032 42.8627932,50.7808595 43.1241212,51.0082032 C43.3854493,51.2367188 43.5354493,51.5660158 43.5354493,51.9128908 L43.5354493,58.8 C43.5354492,59.4632813 42.9987305,60 42.3354492,60 L42.3354492,60 Z M2.4354492,57.6 L41.1354492,57.6 L41.1354492,53.2148437 C38.9440429,53.2792968 36.8030273,52.7648437 34.8706055,51.7054687 C33.8229492,51.1335937 32.8666992,50.4175781 32.0299805,49.5808594 C30.0495118,47.5992187 28.8178711,45.0867187 28.4721679,42.3175781 C28.0620116,38.9425781 29.0487305,35.5242187 31.1768555,32.9308594 C31.4311524,32.6109374 31.7100586,32.3050781 32.015918,31.996875 C34.4604493,29.5546874 37.7124024,28.2855469 41.1354493,28.3640624 L41.1354493,19.5246094 L30.6588868,19.5246094 C29.9956055,19.5246094 29.4588868,18.9878906 29.4588868,18.3246094 L29.4588868,7.83632808 L2.4354492,7.83632808 L2.4354492,57.6 L2.4354492,57.6 Z M32.1108398,33.684375 L32.1225586,33.684375 L32.1108398,33.684375 L32.1108398,33.684375 Z"></path>
                                <path d="M42.3389648,19.5210937 L30.6565429,19.5210937 C29.9932616,19.5210937 29.4565429,18.984375 29.4565429,18.3210937 L29.4565429,6.6386718 C29.4565429,6.15351552 29.7483398,5.71523424 30.1971679,5.53007808 C30.645996,5.34375 31.161621,5.446875 31.5049805,5.79023436 L43.1874024,17.4726563 C43.5307618,17.8160156 43.6338868,18.3316406 43.4475587,18.7804688 C43.2624024,19.2292969 42.8241211,19.5210937 42.3389648,19.5210937 L42.3389648,19.5210937 Z M31.8565429,17.1210937 L39.4420898,17.1210937 L31.8565429,9.5355468 L31.8565429,17.1210937 L31.8565429,17.1210937 Z"></path>
                                <path d="M35.4471679,51.853125 L6.04716792,51.853125 C5.38388664,51.853125 4.84716792,51.3164063 4.84716792,50.653125 C4.84716792,49.9898437 5.38388664,49.453125 6.04716792,49.453125 L35.4471679,49.453125 C36.1104492,49.453125 36.6471679,49.9898437 36.6471679,50.653125 C36.6471679,51.3164063 36.1104492,51.853125 35.4471679,51.853125 L35.4471679,51.853125 Z"></path>
                                <path d="M29.6627929,43.36875 L6.04716792,43.36875 C5.38388664,43.36875 4.84716792,42.8320313 4.84716792,42.16875 C4.84716792,41.5054687 5.38388664,40.96875 6.04716792,40.96875 L29.6627929,40.96875 C30.3260742,40.96875 30.8627929,41.5054687 30.8627929,42.16875 C30.8627929,42.8320313 30.3260742,43.36875 29.6627929,43.36875 L29.6627929,43.36875 Z"></path>
                                <path d="M32.1108398,34.884375 L6.04716792,34.884375 C5.38388664,34.884375 4.84716792,34.3476563 4.84716792,33.684375 C4.84716792,33.0210937 5.38388664,32.484375 6.04716792,32.484375 L32.1108398,32.484375 C32.7741211,32.484375 33.3108398,33.0210937 33.3108398,33.684375 C33.3108398,34.3476563 32.7741211,34.884375 32.1108398,34.884375 L32.1108398,34.884375 Z"></path>
                                <path d="M36.9049805,26.4046876 L6.04130856,26.4046876 C5.37802728,26.4046876 4.84130856,25.8679688 4.84130856,25.2046876 C4.84130856,24.5414063 5.37802728,24.0046876 6.04130856,24.0046876 L36.9049805,24.0046876 C37.5682618,24.0046876 38.1049805,24.5414063 38.1049805,25.2046876 C38.1049805,25.8679688 37.5682618,26.4046876 36.9049805,26.4046876 L36.9049805,26.4046876 Z"></path>
                                <path d="M25.5131836,17.5300781 L6.04130856,17.5300781 C5.37802728,17.5300781 4.84130856,16.9933594 4.84130856,16.3300781 C4.84130856,15.6667968 5.37802728,15.1300781 6.04130856,15.1300781 L25.5131836,15.1300781 C26.1764648,15.1300781 26.7131836,15.6667968 26.7131836,16.3300781 C26.7131836,16.9933594 26.1764648,17.5300781 25.5131836,17.5300781 L25.5131836,17.5300781 Z"></path>
                                <path d="M55.8120118,59.9402344 C55.7663087,59.9414063 55.7206055,59.9414063 55.6772461,59.9402344 C54.6354492,59.9402344 53.6030274,59.5089844 52.7991211,58.7214844 L45.4948242,51.4171874 C45.2288086,51.1511718 45.1034179,50.7761718 45.1549805,50.4046874 C45.206543,50.0320312 45.4291992,49.7050781 45.7573242,49.5210937 C45.9471679,49.415625 46.1358398,49.2996094 46.3268555,49.1730468 C46.3549805,49.1542968 46.3842774,49.1367187 46.4135742,49.1214842 L46.4862305,49.0699217 C46.6092774,48.9855467 46.7311524,48.9023436 46.847168,48.8085936 C46.8694337,48.7898436 46.9268556,48.747656 46.951465,48.7312499 C46.988965,48.6937499 47.0006837,48.6867186 47.044043,48.6539062 C47.3416993,48.4277342 47.626465,48.1757812 47.91709,47.8851562 C48.2194337,47.5839842 48.5088869,47.2476562 48.806543,46.8562499 C48.9319337,46.6921873 49.0467774,46.5304686 49.1604493,46.3699218 C49.17334,46.3476562 49.1862306,46.3253905 49.200293,46.3031249 C49.3186524,46.1214842 49.43584,45.926953 49.5436524,45.7347655 C49.7276368,45.4066405 50.05459,45.1839842 50.4272461,45.1324218 C50.7916992,45.0796874 51.1749024,45.2074218 51.4397461,45.4722655 L58.7358398,52.7683592 C60.3741211,54.4066405 60.3741211,57.073828 58.7358398,58.7132812 L58.7358398,58.7132812 C57.9424805,59.5066406 56.9065429,59.9402344 55.8120118,59.9402344 L55.8120118,59.9402344 Z M57.8874024,57.8648437 L57.8991211,57.8648437 L57.8874024,57.8648437 L57.8874024,57.8648437 Z M55.7428711,57.5402344 C56.1928711,57.5261718 56.6932618,57.3621094 57.0389648,57.0164063 C57.7420898,56.3121094 57.7420898,55.1683594 57.0389648,54.4652344 L50.7881836,48.2144531 C50.764746,48.2460937 50.7401366,48.2777344 50.7166992,48.309375 C50.3545898,48.7863281 49.9936523,49.2046876 49.6139648,49.5820313 C49.2647461,49.9324219 48.9143555,50.2429688 48.5463868,50.5265626 C48.4690429,50.5957031 48.3940429,50.6507813 48.3249024,50.7 C48.2979493,50.7210937 48.2686524,50.7445313 48.2381837,50.7667969 L54.487793,57.0164063 C54.8381836,57.3597656 55.2706055,57.5273437 55.7428711,57.5402344 L55.7428711,57.5402344 Z"></path>
                                <path d="M40.7756836,53.2207031 C38.7143555,53.2207031 36.6987305,52.7074218 34.8706055,51.7054687 C33.8229492,51.1335937 32.8666992,50.4175781 32.0299805,49.5808594 C30.0495118,47.5992187 28.8178711,45.0867187 28.4721679,42.3175781 C28.0620116,38.9390624 29.0510742,35.5160155 31.1838866,32.9226562 C31.4264647,32.6156249 31.7077147,32.3074218 32.0159179,31.9968749 C34.7838866,29.230078 38.5995116,27.9515623 42.4971679,28.4753905 C44.7131836,28.7789062 46.7956055,29.6660155 48.5194336,31.0429686 C48.8721679,31.3089842 49.2495116,31.6406249 49.6163086,32.0097655 C53.5526366,35.9460936 54.3881836,42.0796874 51.6471679,46.9230468 C51.6143554,46.9828124 51.5756836,47.0378905 51.533496,47.0894531 C51.4502929,47.2335937 51.3624023,47.3777344 51.2733397,47.5160156 C51.2487304,47.5675782 51.2194334,47.615625 51.186621,47.6613282 C51.0342773,47.8769532 50.8807616,48.0937501 50.7166991,48.3093751 C50.3545897,48.7863282 49.9936522,49.2046877 49.6139647,49.5820314 C49.264746,49.932422 48.9143554,50.242969 48.5463866,50.5265627 C48.4690429,50.5957031 48.3940429,50.6507813 48.3249024,50.7 C48.1948243,50.8054687 48.0237305,50.925 47.8514648,51.0445313 L47.6956055,51.1523438 C47.6510742,51.1839845 47.6030274,51.2132814 47.5549805,51.2378908 C47.3452148,51.3738283 47.1377929,51.4992188 46.9291992,51.6164064 C45.5627929,52.3968751 44.0663086,52.8984377 42.4901366,53.1035158 C41.9170898,53.1820313 41.3440429,53.2207031 40.7756836,53.2207031 L40.7756836,53.2207031 Z M40.7850586,30.759375 C38.136621,30.759375 35.6170898,31.7917969 33.7151366,33.6925781 C33.4749023,33.9339844 33.252246,34.1765624 33.0506836,34.4296874 C31.3186523,36.5367187 30.5229492,39.2976562 30.8545898,42.0246094 C31.1323242,44.2546874 32.1272461,46.2832031 33.7280274,47.8839844 C34.4030274,48.5601563 35.1741211,49.1367187 36.0225587,49.5996094 C37.903418,50.6320313 40.0303712,51.0175781 42.1713868,50.7246094 C43.4452148,50.559375 44.6452148,50.15625 45.7479493,49.5269531 C45.947168,49.415625 46.13584,49.2996094 46.3268556,49.1730468 C46.3549806,49.1542968 46.3842775,49.1367187 46.4135743,49.1214842 L46.4862306,49.0699217 C46.6092775,48.9855467 46.7311525,48.9023436 46.8471682,48.8085936 C46.8694338,48.7898436 46.9268557,48.747656 46.9514651,48.7312499 C46.9889651,48.6937499 47.0006838,48.6867186 47.0440432,48.6539062 C47.3416994,48.4277342 47.6264651,48.1757812 47.9170901,47.8851562 C48.2194338,47.5839842 48.508887,47.2476562 48.8065432,46.8562499 C48.9319338,46.6921873 49.0467775,46.5304686 49.1604494,46.3699218 C49.1733401,46.3476562 49.1862307,46.3253905 49.2002932,46.3031249 C49.3186525,46.1214842 49.4358401,45.926953 49.5436525,45.7347655 C49.5752932,45.6785155 49.6104494,45.6257812 49.6502932,45.5765624 C51.7514651,41.6941405 51.0518557,36.8390624 47.9182619,33.7054687 C47.626465,33.4136718 47.3346682,33.1546874 47.0463869,32.9367187 C45.6366212,31.8117187 43.9596682,31.0980468 42.1725588,30.8542968 C41.7084961,30.7910156 41.2444336,30.759375 40.7850586,30.759375 L40.7850586,30.759375 Z"></path>
                                <path d="M50.2057618,48.1570313 C49.9737305,48.1570313 49.7393555,48.0902344 49.5331055,47.9507813 C48.9928711,47.5839844 48.8440429,46.8515626 49.2002929,46.303125 C49.3186523,46.1214844 49.4358398,45.9269531 49.5436523,45.7347656 C49.7276366,45.4066406 50.0545898,45.1839844 50.427246,45.1324219 C50.7916991,45.0796876 51.1749023,45.2074219 51.439746,45.4722656 C51.8182616,45.8507813 51.9120116,46.4460937 51.6530273,46.9136719 C51.5124023,47.1679688 51.3565429,47.409375 51.186621,47.6496095 C50.9534179,47.9800781 50.5831055,48.1570313 50.2057618,48.1570313 L50.2057618,48.1570313 Z"></path>
                            </g>
                            <g id="Group-2" transform="translate(34.382022, 36.404494)">
                                <path d="M3.38001317,1.2372678 C3.21615138,1.04225774 2.97035867,1.04225774 2.80649687,1.2372678 L0.348569853,4.16241916 C0.266638956,4.25992419 0.225673519,4.38180551 0.225673519,4.50368679 C0.225673519,4.62556811 0.266638956,4.74744942 0.348569853,4.84495445 L2.80649687,7.77010578 C2.88842777,7.86761084 2.99084141,7.91636335 3.09325502,7.91636335 C3.19566866,7.91636335 3.29808228,7.86761084 3.38001317,7.77010578 C3.54387499,7.57509571 3.54387499,7.28258056 3.38001317,7.08757049 L1.2088443,4.50368679 L3.38001317,1.91980313 C3.54387499,1.72479303 3.54387499,1.4322779 3.38001317,1.2372678 L3.38001317,1.2372678 Z" id="Web-Development--path"></path>
                                <path d="M7.88621271,0.0428310319 C7.66090274,-0.0302977506 7.43559276,0.0915835355 7.37414459,0.359722414 L5.20297572,8.37951232 C5.14152754,8.6476512 5.24394118,8.91579005 5.46925115,8.98891883 C5.51021658,9.01329511 5.55118204,9.01329511 5.5921475,9.01329511 C5.7560093,9.01329511 5.91987109,8.8914138 5.98131927,8.67202745 L8.15248814,0.652237544 C8.21393632,0.384098666 8.11152268,0.115959814 7.88621271,0.0428310319 L7.88621271,0.0428310319 Z" id="Web-Development--path"></path>
                                <path d="M9.97545068,1.2372678 C9.81158886,1.4322779 9.81158886,1.72479303 9.97545068,1.91980313 L12.1466196,4.50368679 L9.97545068,7.08757049 C9.81158886,7.28258056 9.81158886,7.57509571 9.97545068,7.77010578 C10.0573816,7.86761084 10.1597952,7.91636335 10.2622088,7.91636335 C10.3646224,7.91636335 10.4670361,7.86761084 10.548967,7.77010578 L13.006894,4.84495445 C13.0888249,4.74744942 13.1297903,4.62556811 13.1297903,4.50368679 C13.1297903,4.38180551 13.0888249,4.25992419 13.006894,4.16241916 L10.548967,1.2372678 C10.3851052,1.04225774 10.1393125,1.04225774 9.97545068,1.2372678 Z" id="Web-Development--path"></path>
                            </g>
                        </g>
                    </g>
                </g>
            </g>
        </g>
    </g>
</svg>