<?xml version="1.0" encoding="UTF-8"?>
<svg width="120px" height="120px" viewBox="0 0 120 120" version="1.1" xmlns="http://www.w3.org/2000/svg" xmlns:xlink="http://www.w3.org/1999/xlink">
    <!-- Generator: Sketch 50.2 (55047) - http://www.bohemiancoding.com/sketch -->
    <title>Icons/Sercies/Unity Game Development</title>
    <desc>Created with Sketch.</desc>
    <defs></defs>
    <g id="Icons/Sercies/Unity-Game-Development" stroke="none" stroke-width="1" fill="none" fill-rule="evenodd">
        <path d="M69.8630167,57.3779605 C70.1678082,58.1938609 70.3344757,59.0774142 70.3344757,60 C70.3344757,63.542997 67.8764931,66.5103496 64.5771076,67.2811081 L64.5771076,90.2429458 C65.8728365,90.5456367 67.0387977,91.1871031 67.9770785,92.0691673 L87.3122607,79.1442012 C87.1660564,78.5599814 87.0884167,77.9484791 87.0884167,77.3187941 C87.0884167,73.7757971 89.5463993,70.8084445 92.8457848,70.037686 L92.8457848,47.0758483 C91.2776353,46.7095181 89.8995555,45.8469858 88.8851097,44.6622849 L69.8630167,57.3779605 Z M67.9770785,54.5451134 L87.3122607,41.6201473 C87.1660564,41.0359275 87.0884167,40.4244252 87.0884167,39.7947402 C87.0884167,39.1905642 87.1598934,38.6031275 87.2948304,38.0404683 L68.1243368,27.7885668 C66.7772406,29.1259664 64.9241549,29.9518922 62.878684,29.9518922 C60.1064497,29.9518922 57.6875979,28.4347919 56.4028422,26.1834153 L32.710238,38.0617403 C32.8418958,38.6179278 32.9115833,39.1981738 32.9115833,39.7947402 C32.9115833,40.4146985 32.8363236,41.0170314 32.6944654,41.5930545 L56.4767314,56.1659487 C57.7789539,53.9844742 60.158729,52.5240539 62.878684,52.5240539 C64.8506071,52.5240539 66.6437311,53.2916528 67.9770785,54.5451134 Z M55.4379435,59.5210995 L31.1403293,44.632419 C30.8086331,45.0239042 30.4374303,45.3806851 30.0328992,45.6965669 L30.0328992,71.4169674 C31.7847628,72.7849261 32.9115833,74.9199129 32.9115833,77.3187941 C32.9115833,77.9387524 32.8363236,78.5410853 32.6944654,79.1171084 L56.4767314,93.6900026 C57.499223,91.9771314 59.1860503,90.7088066 61.1802605,90.2429458 L61.1802605,67.2811081 C57.880875,66.5103496 55.4228924,63.542997 55.4228924,60 C55.4228924,59.8391292 55.4279599,59.6794451 55.4379435,59.5210995 Z M96.2426319,70.037686 C99.5420174,70.8084445 102,73.7757971 102,77.3187941 C102,81.4476451 98.6619284,84.7947402 94.5442084,84.7947402 C92.2805391,84.7947402 90.2524892,83.7832065 88.8851097,82.1863388 L69.8630167,94.9020144 C70.1678082,95.7179147 70.3344757,96.6014681 70.3344757,97.5240539 C70.3344757,101.652905 66.996404,105 62.878684,105 C58.760964,105 55.4228924,101.652905 55.4228924,97.5240539 C55.4228924,97.363183 55.4279599,97.203499 55.4379435,97.0451534 L31.1403293,82.1564729 C29.772731,83.7705836 27.7335412,84.7947402 25.4557916,84.7947402 C21.3380716,84.7947402 18,81.4476451 18,77.3187941 C18,73.1899431 21.3380716,69.842848 25.4557916,69.842848 C25.8574202,69.842848 26.2516317,69.8746902 26.6360521,69.9359943 L26.6360521,47.17754 C26.2516317,47.2388441 25.8574202,47.2706863 25.4557916,47.2706863 C21.3380716,47.2706863 18,43.9235913 18,39.7947402 C18,35.6658892 21.3380716,32.3187941 25.4557916,32.3187941 C27.7611372,32.3187941 29.8221075,33.3679173 31.1897401,35.0159876 L55.43265,22.861766 C55.4261712,22.7339799 55.4228924,22.6053469 55.4228924,22.4759461 C55.4228924,18.3470951 58.760964,15 62.878684,15 C66.996404,15 70.3344757,18.3470951 70.3344757,22.4759461 C70.3344757,23.3231554 70.1939296,24.1374497 69.9349408,24.8966659 L88.8248166,34.9984999 C90.1924936,33.3604994 92.2470273,32.3187941 94.5442084,32.3187941 C98.6619284,32.3187941 102,35.6658892 102,39.7947402 C102,43.3377373 99.5420174,46.3050898 96.2426319,47.0758483 L96.2426319,70.037686 Z M94.5442084,43.8646568 C96.7859015,43.8646568 98.6031528,42.0424931 98.6031528,39.7947402 C98.6031528,37.5469873 96.7859015,35.7248236 94.5442084,35.7248236 C92.3025152,35.7248236 90.4852639,37.5469873 90.4852639,39.7947402 C90.4852639,42.0424931 92.3025152,43.8646568 94.5442084,43.8646568 Z M62.878684,26.5458627 C65.1203772,26.5458627 66.9376285,24.723699 66.9376285,22.4759461 C66.9376285,20.2281932 65.1203772,18.4060295 62.878684,18.4060295 C60.6369909,18.4060295 58.8197395,20.2281932 58.8197395,22.4759461 C58.8197395,24.723699 60.6369909,26.5458627 62.878684,26.5458627 Z M25.4557916,43.8646568 C27.6974848,43.8646568 29.5147361,42.0424931 29.5147361,39.7947402 C29.5147361,37.5469873 27.6974848,35.7248236 25.4557916,35.7248236 C23.2140985,35.7248236 21.3968472,37.5469873 21.3968472,39.7947402 C21.3968472,42.0424931 23.2140985,43.8646568 25.4557916,43.8646568 Z M25.4557916,81.3887107 C27.6974848,81.3887107 29.5147361,79.566547 29.5147361,77.3187941 C29.5147361,75.0710412 27.6974848,73.2488775 25.4557916,73.2488775 C23.2140985,73.2488775 21.3968472,75.0710412 21.3968472,77.3187941 C21.3968472,79.566547 23.2140985,81.3887107 25.4557916,81.3887107 Z M62.878684,101.59397 C65.1203772,101.59397 66.9376285,99.7718068 66.9376285,97.5240539 C66.9376285,95.276301 65.1203772,93.4541373 62.878684,93.4541373 C60.6369909,93.4541373 58.8197395,95.276301 58.8197395,97.5240539 C58.8197395,99.7718068 60.6369909,101.59397 62.878684,101.59397 Z M94.5442084,81.3887107 C96.7859015,81.3887107 98.6031528,79.566547 98.6031528,77.3187941 C98.6031528,75.0710412 96.7859015,73.2488775 94.5442084,73.2488775 C92.3025152,73.2488775 90.4852639,75.0710412 90.4852639,77.3187941 C90.4852639,79.566547 92.3025152,81.3887107 94.5442084,81.3887107 Z M62.878684,64.0699166 C65.1203772,64.0699166 66.9376285,62.2477529 66.9376285,60 C66.9376285,57.7522471 65.1203772,55.9300834 62.878684,55.9300834 C60.6369909,55.9300834 58.8197395,57.7522471 58.8197395,60 C58.8197395,62.2477529 60.6369909,64.0699166 62.878684,64.0699166 Z" id="Unity-Game-Development" fill="#5E656A" fill-rule="nonzero"></path>
    </g>
</svg>