<?xml version="1.0" encoding="UTF-8"?>
<svg width="120px" height="120px" viewBox="0 0 120 120" version="1.1" xmlns="http://www.w3.org/2000/svg" xmlns:xlink="http://www.w3.org/1999/xlink">
    <!-- Generator: Sketch 50.2 (55047) - http://www.bohemiancoding.com/sketch -->
    <title>Icons/Sercies/Web Development </title>
    <desc>Created with Sketch.</desc>
    <defs></defs>
    <g id="Icons/Sercies/Web-Development-" stroke="none" stroke-width="1" fill="none" fill-rule="evenodd">
        <path d="M114.209677,15 L6.79032258,15 C5.80564516,15 5,15.8067729 5,16.7928287 L5,103.207171 C5,104.193227 5.80564516,105 6.79032258,105 L114.209677,105 C115.194355,105 116,104.193227 116,103.207171 L116,16.7928287 C116,15.8067729 115.194355,15 114.209677,15 Z M112.419355,18.5856574 L112.419355,37.0517928 L8.58064516,37.0517928 L8.58064516,18.5856574 L112.419355,18.5856574 Z M8.58064516,101.414343 L8.58064516,40.6374502 L112.419355,40.6374502 L112.419355,101.414343 L8.58064516,101.414343 Z M46.0879032,58.0278884 C45.3717742,57.310757 44.2975806,57.310757 43.5814516,58.0278884 L32.8395161,68.7848606 C32.4814516,69.1434263 32.3024194,69.5916335 32.3024194,70.0398406 C32.3024194,70.4880478 32.4814516,70.936255 32.8395161,71.2948207 L43.5814516,82.0517928 C43.9395161,82.4103586 44.3870968,82.5896414 44.8346774,82.5896414 C45.2822581,82.5896414 45.7298387,82.4103586 46.0879032,82.0517928 C46.8040323,81.3346614 46.8040323,80.2589641 46.0879032,79.5418327 L36.5991935,70.0398406 L46.0879032,60.5378486 C46.8040323,59.8207171 46.8040323,58.7450199 46.0879032,58.0278884 Z M65.7814516,53.6354582 C64.7967742,53.3665339 63.8120968,53.814741 63.5435484,54.8007968 L54.0548387,84.2928287 C53.7862903,85.2788845 54.233871,86.2649402 55.2185484,86.5338645 C55.3975806,86.623506 55.5766129,86.623506 55.7556452,86.623506 C56.4717742,86.623506 57.1879032,86.1752988 57.4564516,85.3685259 L66.9451613,55.876494 C67.2137097,54.8904382 66.766129,53.9043825 65.7814516,53.6354582 Z M77.4185484,58.0278884 C76.7024194,57.310757 75.6282258,57.310757 74.9120968,58.0278884 C74.1959677,58.7450199 74.1959677,59.8207171 74.9120968,60.5378486 L84.4008065,70.0398406 L74.9120968,79.5418327 C74.1959677,80.2589641 74.1959677,81.3346614 74.9120968,82.0517928 C75.2701613,82.4103586 75.7177419,82.5896414 76.1653226,82.5896414 C76.6129032,82.5896414 77.0604839,82.4103586 77.4185484,82.0517928 L88.1604839,71.2948207 C88.5185484,70.936255 88.6975806,70.4880478 88.6975806,70.0398406 C88.6975806,69.5916335 88.5185484,69.1434263 88.1604839,68.7848606 L77.4185484,58.0278884 Z M12.9669355,29.9701195 C11.9822581,29.9701195 11.1766129,29.1633466 11.1766129,28.1772908 C11.1766129,27.1912351 11.9822581,26.3844622 12.9669355,26.3844622 L75.5387097,26.3844622 C76.5233871,26.3844622 77.3290323,27.1912351 77.3290323,28.1772908 C77.3290323,29.1633466 76.5233871,29.9701195 75.5387097,29.9701195 L12.9669355,29.9701195 Z M106.06371,29.9701195 C105.079032,29.9701195 104.273387,29.1633466 104.273387,28.1772908 L104.273387,27.3705179 C104.273387,26.3844622 105.079032,25.5776892 106.06371,25.5776892 L106.869355,25.5776892 C107.854032,25.5776892 108.659677,26.3844622 108.659677,27.3705179 L108.659677,28.1772908 C108.659677,29.1633466 107.854032,29.9701195 106.869355,29.9701195 L106.06371,29.9701195 Z M95.7693548,29.9701195 C94.6951613,29.9701195 93.9790323,29.1633466 93.9790323,28.1772908 L93.9790323,27.3705179 C93.9790323,26.3844622 94.7846774,25.5776892 95.7693548,25.5776892 L96.575,25.5776892 C97.5596774,25.5776892 98.3653226,26.3844622 98.3653226,27.3705179 L98.3653226,28.1772908 C98.3653226,29.1633466 97.5596774,29.9701195 96.575,29.9701195 L95.7693548,29.9701195 Z M84.4903226,29.9701195 C83.5056452,29.9701195 82.7,29.1633466 82.7,28.1772908 L82.7,27.3705179 C82.7,26.3844622 83.5056452,25.5776892 84.4903226,25.5776892 L85.2959677,25.5776892 C86.2806452,25.5776892 87.0862903,26.3844622 87.0862903,27.3705179 L87.0862903,28.1772908 C87.0862903,29.1633466 86.2806452,29.9701195 85.2959677,29.9701195 L84.4903226,29.9701195 Z" id="Web-Development-" fill="#5E656A" fill-rule="nonzero"></path>
    </g>
</svg>